<?xml version="1.0" encoding="UTF-8"?>
<svg xmlns="http://www.w3.org/2000/svg" xmlns:xlink="http://www.w3.org/1999/xlink" width="35pt" height="35pt" viewBox="0 0 35 35" version="1.1">
<g id="surface1">
<path style=" stroke:none;fill-rule:nonzero;fill:rgb(88.235294%,0%,0%);fill-opacity:1;" d="M 17.71875 0 L 17.71875 7.609375 C 20.9375 7.609375 23.550781 10.222656 23.550781 13.441406 C 23.550781 16.648438 20.9375 19.273438 17.71875 19.273438 L 17.71875 35.441406 L 28.390625 22.023438 C 30.308594 19.601562 31.320312 16.691406 31.320312 13.597656 C 31.320312 6.101562 25.214844 0 17.71875 0 Z M 17.71875 0 "/>
<path style=" stroke:none;fill-rule:nonzero;fill:rgb(84.705882%,84.313725%,85.490196%);fill-opacity:1;" d="M 23.550781 13.441406 C 23.550781 10.222656 20.9375 7.609375 17.71875 7.609375 L 17.71875 19.273438 C 20.9375 19.273438 23.550781 16.648438 23.550781 13.441406 Z M 23.550781 13.441406 "/>
<path style=" stroke:none;fill-rule:nonzero;fill:rgb(100%,43.921569%,43.921569%);fill-opacity:1;" d="M 11.890625 13.441406 C 11.890625 10.222656 14.5 7.609375 17.71875 7.609375 L 17.71875 0 C 10.222656 0 4.121094 6.101562 4.121094 13.597656 C 4.121094 16.691406 5.132812 19.601562 7.050781 22.027344 L 17.71875 35.441406 L 17.71875 19.273438 C 14.5 19.273438 11.890625 16.648438 11.890625 13.441406 Z M 11.890625 13.441406 "/>
<path style=" stroke:none;fill-rule:nonzero;fill:rgb(100%,100%,100%);fill-opacity:1;" d="M 11.890625 13.441406 C 11.890625 16.648438 14.5 19.273438 17.71875 19.273438 L 17.71875 7.609375 C 14.5 7.609375 11.890625 10.222656 11.890625 13.441406 Z M 11.890625 13.441406 "/>
</g>
</svg>
